<svg width="13" height="13" viewBox="0 0 13 13" fill="none" xmlns="http://www.w3.org/2000/svg">
<g id="24 / file / folder">
<path id="icon" fill-rule="evenodd" clip-rule="evenodd" d="M11.375 2.70833C11.9733 2.70833 12.4583 3.19336 12.4583 3.79167V10.2917C12.4583 10.89 11.9733 11.375 11.375 11.375H1.62499C1.02668 11.375 0.541656 10.89 0.541656 10.2917V2.70833C0.541656 2.11002 1.02668 1.625 1.62499 1.625H4.87499C5.48166 1.625 5.86783 1.88254 6.25568 2.37188C6.26642 2.38542 6.29258 2.41913 6.32155 2.45646C6.36243 2.50914 6.4089 2.56902 6.4255 2.58961C6.44229 2.61042 6.45645 2.62764 6.46814 2.64187L6.46815 2.64188C6.51579 2.69982 6.5227 2.70822 6.50096 2.70833H11.375ZM11.375 4.875V3.79167L6.49709 3.79166C6.10809 3.78958 5.8547 3.60745 5.58232 3.26979C5.55764 3.2392 5.49769 3.16193 5.45416 3.10581L5.45413 3.10577L5.40669 3.04479C5.20379 2.78881 5.08312 2.70833 4.87499 2.70833H1.62499V4.875H11.375ZM11.375 5.95833H1.62499V10.2917H11.375V5.95833Z" fill="#535F77"/>
</g>
</svg>
