<svg width="17" height="17" viewBox="0 0 17 17" fill="none" xmlns="http://www.w3.org/2000/svg">
<g id="24 / basic / link">
<path id="icon" fill-rule="evenodd" clip-rule="evenodd" d="M7.08331 10.625V12.0417H4.24998C2.29397 12.0417 0.708313 10.456 0.708313 8.5C0.708313 6.54399 2.29397 4.95833 4.24998 4.95833H7.08331V6.375H4.24998C3.07637 6.375 2.12498 7.32639 2.12498 8.5C2.12498 9.6736 3.07637 10.625 4.24998 10.625H7.08331ZM9.91665 6.375V4.95833H12.75C14.706 4.95833 16.2916 6.54399 16.2916 8.5C16.2916 10.456 14.706 12.0417 12.75 12.0417H9.91665V10.625H12.75C13.9236 10.625 14.875 9.6736 14.875 8.5C14.875 7.32639 13.9236 6.375 12.75 6.375H9.91665ZM4.95831 7.79167V9.20833H12.0416V7.79167H4.95831Z" fill="#6D778A"/>
</g>
</svg>
